<?xml version="1.0" encoding="UTF-8" standalone="no"?>
<svg
   version="1.1"
   width="1440"
   height="100"
   preserveAspectRatio="none"
   viewBox="0 0 1440 100"
   id="svg13"
   sodipodi:docname="Wave2.svg"
   inkscape:version="1.2.2 (732a01da63, 2022-12-09)"
   xmlns:inkscape="http://www.inkscape.org/namespaces/inkscape"
   xmlns:sodipodi="http://sodipodi.sourceforge.net/DTD/sodipodi-0.dtd"
   xmlns="http://www.w3.org/2000/svg"
   xmlns:svg="http://www.w3.org/2000/svg">
  <sodipodi:namedview
     id="namedview15"
     pagecolor="#ffffff"
     bordercolor="#000000"
     borderopacity="0.25"
     inkscape:showpageshadow="2"
     inkscape:pageopacity="0.0"
     inkscape:pagecheckerboard="0"
     inkscape:deskcolor="#d1d1d1"
     showgrid="false"
     showguides="true"
     inkscape:zoom="1"
     inkscape:cx="164.5"
     inkscape:cy="79"
     inkscape:window-width="1920"
     inkscape:window-height="1017"
     inkscape:window-x="-8"
     inkscape:window-y="-8"
     inkscape:window-maximized="1"
     inkscape:current-layer="svg13">
    <sodipodi:guide
       position="1440.4688,89.171875"
       orientation="0,-1"
       id="guide1524"
       inkscape:locked="false" />
  </sodipodi:namedview>
  <g
     mask="url(&quot;#SvgjsMask1038&quot;)"
     fill="none"
     id="g6">
    <path
       id="path2"
       style="fill:#818cf8;fill-opacity:1"
       d="M 864,1 C 835.2006,-1.199956 820.7994,26.60006 792,30 763.2006,33.39994 748.7994,18.2 720,18 691.2006,17.8 676.7994,30.99996 648,29 619.2006,27.00004 604.7994,7.00002 576,8 547.2006,8.99998 532.7994,33.6 504,34 475.2006,34.4 460.7994,8.800024 432,10 403.2006,11.19998 388.7994,39.20002 360,40 331.2006,40.79998 316.7994,14.99998 288,14 259.2006,13.00002 244.7994,33.60002 216,35 187.2006,36.39998 172.7994,18.80004 144,21 115.2006,23.19996 100.7994,48.59994 72,46 58.115784,44.746562 44.432743,37.561158 32.191406,29.695312 c -2.341849,-0.0057 -4.683858,-0.01577 -7.02539,-0.0332 C 19.984296,29.604744 14.801644,29.645196 9.6210938,29.498047 5.4578019,29.379792 4.3116207,29.289675 0.171875,29.0625 0.11461097,29.0585 0.05726595,29.054803 0,29.050781 V 100 H 1440 V 12.017578 c -0.3275,0.0034 -0.6551,0.0038 -0.9824,0.01172 -0.5924,0.01699 -1.1849,0.03904 -1.7754,0.0918 -0.6585,0.05263 -1.3177,0.0798 -1.9766,0.126953 -0.63,0.04572 -1.2611,0.07081 -1.8906,0.123047 -0.5728,0.04957 -1.1462,0.07591 -1.7188,0.126953 -0.552,0.0504 -1.1091,0.0778 -1.6621,0.132812 -0.5513,0.05612 -1.1033,0.101077 -1.6543,0.160157 -0.5893,0.05659 -1.1802,0.09617 -1.7675,0.173828 -0.5939,0.05507 -1.1868,0.128414 -1.7813,0.177734 -0.6618,0.07336 -1.3226,0.155591 -1.9824,0.244141 -0.5579,0.06774 -1.1133,0.149241 -1.668,0.238281 -0.5217,0.07964 -1.0373,0.194406 -1.5547,0.296875 -0.094,0.02178 -0.1888,0.04167 -0.2832,0.0625 C 1404.6418,22.860277 1386.5426,33.068508 1368,35 c -28.8,2.99994 -43.2,-19.79996 -72,-18 -28.8,1.79996 -43.2,27.4 -72,27 -28.8,-0.4 -43.2,-27.80002 -72,-29 -28.8,-1.19998 -43.2,22.40002 -72,23 -28.8,0.59998 -43.2,-20.59998 -72,-20 -28.7994,0.59998 -43.2006,26.39994 -72,23 C 907.2006,37.60006 892.7994,3.199956 864,1 Z" />
    <path
       d="M 0,52 C 36,60.2 108,90.8 180,93 C 252,95.2 288,65.2 360,63 C 432,60.8 468,80.2 540,82 C 612,83.8 648,72 720,72 C 792,72 828,81.8 900,82 C 972,82.2 1008,73.2 1080,73 C 1152,72.8 1188,81.8 1260,81 C 1332,80.2 1404,71.4 1440,69L1440 100L0 100z"
       fill="rgba(89, 104, 105, 0)"
       id="path4"
       style="fill:#818cf8;fill-opacity:1" />
  </g>
  <defs
     id="defs11">
    <mask
       id="SvgjsMask1038">
      <rect
         width="1440"
         height="100"
         fill="#ffffff"
         id="rect8" />
    </mask>
  </defs>
  <path
     style="fill:#818cf8"
     d="m 1439.875,10.875 c 0,0 -11.375,-0.875 -20.5,3.125 -9.125,4 12.75,13.25 12.75,13.25 z"
     id="path390" />
  <path
     id="path392"
     style="fill:#818cf8"
     d="m 1459.625,2.75 -18.8359,7.353516 c 0.3874,0.220277 0.2612,0.759964 -0.418,0.791015 -0.2679,0.01229 -0.5366,0.01398 -0.8047,0.01758 -0.1564,-0.0015 -0.3125,-0.0012 -0.4687,-0.0098 -0.097,-0.0059 -0.1921,-0.01568 -0.2891,-0.01758 -0.01,-3.01e-4 -0.012,-0.0017 -0.018,-0.002 l -1.5527,0.607422 8.8867,4.134766 z" />
  <path
     style="fill:#818cf8"
     d="m 1438.9531,10.8125 1.375,0.01563 0.1563,0.3125 -1.0938,0.328125 z"
     id="path599" />
  <path
     style="fill:#818cf8"
     d="m 0,10.828125 c 0,0 29.75,-2.578125 48.75,28.921875 19,31.5 -18,38.75 -18,38.75 L -12,37.75 Z"
     id="path688" />
  <path
     style="fill:#818cf8"
     d="m 36.25,24.5 c 0,0 38.75,29.5 63,16 24.25,-13.5 -8.5,41.75 -8.5,41.75 0,0 -55,-13 -55.75,-14.75 -0.75,-1.75 1.25,-43 1.25,-43 z"
     id="path690" />
</svg>
