<?xml version="1.0" encoding="UTF-8" standalone="no"?>
<svg
   version="1.1"
   width="1440"
   height="100"
   preserveAspectRatio="none"
   viewBox="0 0 1440 100"
   id="svg13"
   sodipodi:docname="Wave2.svg"
   inkscape:version="1.2.2 (732a01da63, 2022-12-09)"
   xmlns:inkscape="http://www.inkscape.org/namespaces/inkscape"
   xmlns:sodipodi="http://sodipodi.sourceforge.net/DTD/sodipodi-0.dtd"
   xmlns="http://www.w3.org/2000/svg"
   xmlns:svg="http://www.w3.org/2000/svg">
  <sodipodi:namedview
     id="namedview15"
     pagecolor="#ffffff"
     bordercolor="#000000"
     borderopacity="0.25"
     inkscape:showpageshadow="2"
     inkscape:pageopacity="0.0"
     inkscape:pagecheckerboard="0"
     inkscape:deskcolor="#d1d1d1"
     showgrid="false"
     showguides="true"
     inkscape:zoom="2.8284271"
     inkscape:cx="1293.1215"
     inkscape:cy="95.459415"
     inkscape:window-width="1920"
     inkscape:window-height="1017"
     inkscape:window-x="-8"
     inkscape:window-y="-8"
     inkscape:window-maximized="1"
     inkscape:current-layer="svg13">
    <sodipodi:guide
       position="1440.1445,59.003906"
       orientation="0,-1"
       id="guide2328"
       inkscape:locked="false" />
  </sodipodi:namedview>
  <g
     mask="url(&quot;#SvgjsMask1079&quot;)"
     fill="none"
     id="g6"
     style="fill:#818cf8;fill-opacity:1">
    <path
       id="path2"
       style="fill:#818cf8;fill-opacity:1"
       d="M 192,4 C 153.60136,3.4000204 134.39864,35.6 96,36 82.607666,36.139508 69.263135,33.176568 56.685547,29.115234 c -0.0012,-3.84e-4 -0.0027,3.84e-4 -0.0039,0 -0.0015,-2.64e-4 -0.0025,-0.0016 -0.0039,-0.002 l -0.002,0.002 c -0.0076,-7.43e-4 -0.01432,-0.0039 -0.02148,-0.0059 -5.89e-4,-7.7e-5 -0.0014,7.8e-5 -0.002,0 -0.0019,-4.51e-4 -0.0039,4.42e-4 -0.0059,0 l -0.002,-0.002 c -6.5e-4,-8.8e-5 -0.0013,-4.7e-5 -0.002,0 -9.01e-4,-1.31e-4 -0.0011,1.36e-4 -0.002,0 -6.5e-4,-1.36e-4 -0.0013,-5.5e-5 -0.002,0 -5.39e-4,-8.5e-5 -0.0014,8.7e-5 -0.002,0 -0.0014,-2.29e-4 -0.0025,-0.0015 -0.0039,-0.002 -0.0012,-2.07e-4 -0.0027,2.21e-4 -0.0039,0 -5.81e-4,-1.26e-4 -0.0014,1.47e-4 -0.002,0 -0.0018,-3.43e-4 -0.0041,-0.0016 -0.0059,-0.002 -0.0025,-5.34e-4 -0.0034,-0.0013 -0.0059,-0.002 -0.0013,-3.89e-4 -0.0027,3.51e-4 -0.0039,0 -0.0035,-0.001 -0.0064,-0.0027 -0.0098,-0.0039 -0.262516,0.272427 -0.528092,0.542696 -0.787109,0.81836 -0.713911,0.811783 -1.513087,1.53981 -2.259765,2.320312 -0.719497,0.746095 -1.515595,1.406056 -2.31836,2.058594 -1.042699,0.79241 -2.232574,1.352182 -3.412109,1.90625 -1.43333,0.712053 -2.943,1.254939 -4.445313,1.800781 -2.200777,0.796971 -4.413121,1.557693 -6.662109,2.207031 -2.522715,0.652785 -5.076738,1.179325 -7.628906,1.701172 -1.530677,0.28442 -3.065804,0.54874 -4.603516,0.792969 -1.222101,0.155066 -2.434405,0.375559 -3.65625,0.533203 -1.048845,0.08838 -2.089469,0.234246 -3.134766,0.355469 -1.248695,0.119919 -2.484339,0.34907 -3.71875,0.566406 -1.868486,0.332441 -3.700446,0.833626 -5.5292965,1.333985 -2.0762174,0.545491 -4.180397,0.977574 -6.2988281,1.322265 C 1.4420345,46.91818 0.72036121,47.009236 0,47.029297 V 100 H 1440 V 41 c -19.2,-3.399898 -57.6,-15.400068 -96,-17 -38.4,-1.599932 -57.6,9.2 -96,9 -38.4,-0.2 -57.6,-8.800034 -96,-10 -38.4,-1.199966 -57.6,5.399966 -96,4 -38.4,-1.399966 -57.60136,-15.199864 -96,-11 -38.39864,4.199864 -57.60136,31.000034 -96,32 -38.39864,0.999966 -57.60136,-22.800136 -96,-27 -38.39864,-4.199864 -57.60136,8.199932 -96,6 C 633.60136,24.800068 614.39864,7.000102 576,10 537.60136,12.999898 518.39864,39.800068 480,42 441.60136,44.199932 422.39864,21.599966 384,21 345.60136,20.400034 326.39864,42.399898 288,39 249.60136,35.600102 230.39864,4.5999796 192,4 Z M 6.3828125,23.126953 c 5.63e-4,0.0072 0.00139,0.01432 0.00195,0.02148 0.00391,-6.07e-4 0.0078,-0.0013 0.011719,-0.002 -0.00678,-0.01063 -0.00668,-0.0086 -0.013672,-0.01953 z" />
    <path
       d="M 0,80 C 96,78.6 288,70.2 480,73 C 672,75.8 768,95.8 960,94 C 1152,92.2 1344,70 1440,64L1440 100L0 100z"
       fill="rgba(89, 104, 105, 0)"
       id="path4"
       style="fill:#818cf8;fill-opacity:1" />
  </g>
  <defs
     id="defs11">
    <mask
       id="SvgjsMask1079">
      <rect
         width="1440"
         height="100"
         fill="#ffffff"
         id="rect8" />
    </mask>
  </defs>
  <path
     id="path4882"
     style="fill:#818cf8;fill-opacity:1"
     d="M 41.734375,24.767578 C 29.768362,24.743116 -0.04296875,41.027344 -0.04296875,41.027344 L -0.625,52.125 l 46.5,-2.75 17.25,-18 -6.5,-2.25 c 0,0 -2.75006,-1.625013 -12.75,-4.125 -0.624994,-0.15625 -1.342892,-0.230791 -2.140625,-0.232422 z" />
  <path
     id="path4884"
     style="fill:#818cf8;fill-opacity:1"
     d="m 56.484375,29.078125 c 0.003,7.2e-4 0.0096,0.0016 0.01563,0.002 z m 0.01758,0.002 0.01367,0.0039 v -0.002 c -0.0012,-0.0012 -0.007,-0.0015 -0.01367,-0.002 z m 0.01367,0.0039 v 0.002 c 9.79e-4,9.7e-4 0.0035,3.92e-4 0.0059,0 z m 0.0078,0.002 0.0078,0.002 v -0.002 c -0.0013,-0.0013 -0.0046,-6.5e-4 -0.0078,0 z m 0.0078,0.002 v 0.002 c 0.004,0.004 0.02184,0.006 0.02734,0.0078 0.0017,6e-4 0.01342,0.0028 0.01563,0.0039 0.0016,8e-4 0.0022,0.0033 0.0039,0.0039 0.0025,8.23e-4 0.0053,-8.24e-4 0.0078,0 0.0017,6e-4 0.0022,0.0033 0.0039,0.0039 0.0056,0.0019 0.01174,-0.0021 0.01758,-0.002 z" />
  <path
     id="path4886"
     style="fill:#818cf8;fill-opacity:1"
     d="m 55.755859,28.919922 c 0.0037,0.0092 0.0086,0.01794 0.01172,0.02734 0.0055,0.01657 -0.0055,0.03812 0,0.05469 8e-4,0.0024 0.0041,0.0041 0.0059,0.0059 0.0018,0.0055 0.0041,0.01208 0.0059,0.01758 7.25e-4,0.0037 1.68e-4,0.0061 0,0.0078 -2.99e-4,0.0019 -0.0013,0.0067 0.0039,0.01367 0.0063,0.0083 0.01764,0.01278 0.02344,0.02148 0.01911,0.02866 0.03558,0.05923 0.05469,0.08789 0.02278,0.03418 0.06764,0.06652 0.09375,0.0957 0.04781,0.05344 0.0814,0.115272 0.126953,0.169922 0.06487,0.07785 0.143407,0.145324 0.216797,0.214844 0.07144,0.06768 0.207579,0.210756 0.302734,0.222656 0.01328,0.0017 0.04158,-0.0028 0.05078,-0.0059 0.005,-0.0017 0.03636,-0.02688 0.03711,-0.02734 0.04677,-0.02923 0.09832,-0.05317 0.144531,-0.08398 0.0057,-0.0038 0.06229,-0.04123 0.05469,-0.04883 -0.0037,-0.0037 -0.02154,-0.0074 -0.02734,-0.01172 -0.03076,-0.02307 -0.06813,-0.03806 -0.09961,-0.06055 -0.0063,-0.0045 -0.01013,-0.01009 -0.01563,-0.01563 -0.0092,-0.0055 -0.0201,-0.01208 -0.0293,-0.01758 -0.03993,-0.02795 -0.07111,-0.06398 -0.109375,-0.09375 -0.01216,-0.0095 -0.01706,-0.01384 -0.01953,-0.01563 2.47e-4,8.66e-4 -0.0032,-2.25e-4 -0.03516,-0.02344 -0.01793,-0.01304 -0.03261,-0.03025 -0.05078,-0.04297 -0.01012,-0.0071 -0.02261,-0.01118 -0.0332,-0.01758 -0.02588,-0.01553 -0.05056,-0.03254 -0.07617,-0.04883 -0.04132,-0.02629 -0.08158,-0.05806 -0.123047,-0.08398 -0.01831,-0.01145 -0.0288,-0.01228 -0.04883,-0.02148 -0.172486,-0.07961 -0.328071,-0.187592 -0.464844,-0.320312 z" />
  <path
     style="fill:#818cf8;fill-opacity:1"
     d="m 56.55197,29.411223 c 0.02788,-0.02787 0.04382,-0.04401 0.07734,-0.06077 0.0074,-0.0037 0.0077,-0.01318 0.01105,-0.01657 1.8e-5,-1.8e-5 0.01709,-0.01157 0.0221,-0.01657"
     id="path4888" />
  <path
     style="fill:#818cf8;fill-opacity:1"
     d="m 56.524348,29.157106 -0.03216,0.01086"
     id="path4890" />
  <path
     id="path4941"
     style="fill:#818cf8;fill-opacity:1"
     d="m 49.638672,26.400391 c 0.02019,0.01179 0.03881,0.0227 0.05859,0.03516 0.0174,0.01096 0.03872,0.0378 0.06445,0.0293 0.0053,-0.0017 0.0079,-0.0077 0.01172,-0.01172 z m 0.134766,0.05273 13.705078,5.332031 c -0.0025,-0.0066 -0.0056,-0.01289 -0.0078,-0.01953 z m 13.697265,5.3125 0.02734,0.0098 c -0.0083,-0.01219 -0.01665,-0.02712 -0.0293,-0.0293 -0.0041,-7.1e-4 -9.27e-4,0.0096 0,0.01367 4.76e-4,0.002 0.0013,0.0039 0.002,0.0059 z m 0.02734,0.01172 c 0.0087,0.01245 0.01818,0.02235 0.03711,0.01367 z" />
  <path
     style="fill:#818cf8;fill-opacity:1"
     d="M 53.09375,27.6875 62,30.875 58.6875,31.53125 Z"
     id="path5128" />
</svg>
